<svg version="1.1" xmlns="http://www.w3.org/2000/svg" xmlns:xlink="http://www.w3.org/1999/xlink" width="822.6086956521738" height="290"><style xmlns="http://www.w3.org/1999/xhtml"></style><defs/><g transform="translate(0,0)"><g><rect fill="rgb(0,0,0)" stroke="none" x="0" y="0" width="822.6086956521738" height="290" fill-opacity="0"/></g><g transform="translate(0.5,0.5) matrix(1,0,0,1,6.800000000000011,40)"><g><g transform="translate(0,0) scale(3.0666666666666664,3.0802196330520957)"><g><path fill="#3966A0" stroke="rgb(0,0,0)" d="M 123 62.3 L 112.006 62.3 L 112.006 5 C 112.006 2.243 109.764 0 107.006 0 L 18.993 0 C 16.236 0 13.993 2.243 13.993 5 L 13.993 62.3 L 3 62.3 L 0 62.3 L 0 65.3 L 0 68.485 C 0 71.953 2.328 74.67 5.3 74.67 L 120.699 74.67 C 123.671 74.67 126 71.953 126 68.485 L 126 65.3 L 126 62.3 L 123 62.3 Z" stroke-opacity="0" stroke-miterlimit="10"/></g><g><g><path fill="#FFFFFF" stroke="rgb(0,0,0)" d="M 107.027 2.999 L 19.014 2.999 C 17.914 2.999 17.014 3.899 17.014 4.999 L 17.014 62.3 L 109.027 62.3 L 109.027 4.999 C 109.027 3.899 108.127 2.999 107.027 2.999 Z M 103.275 60.507 L 33.613 60.507 L 22.765 60.507 L 22.765 8.75 L 63.495 8.75 L 103.275 8.75 L 103.275 60.507 Z" opacity="0.93" stroke-opacity="0" stroke-miterlimit="10"/></g></g><g><g><path fill="#FFFFFF" stroke="rgb(0,0,0)" d="M 112.607 65.3 L 112.607 65.3 L 71.455 65.301 L 71.455 65.893 C 71.455 66.768 70.937 67.485 70.305 67.485 L 56.12 67.485 C 55.487 67.485 54.97 66.768 54.97 65.893 L 54.97 65.301 L 14.521 65.301 L 14.521 65.3 L 3.021 65.3 L 3.021 68.485 C 3.021 70.235 4.056 71.669 5.321 71.669 L 120.721 71.669 C 121.985 71.669 123.022 70.235 123.022 68.485 L 123.022 65.3 L 112.607 65.3 Z" opacity="0.85" stroke-opacity="0" stroke-miterlimit="10"/></g></g><g><path fill="#FFFFFF" stroke="rgb(0,0,0)" d="M 63.495 8.75 L 22.765 8.75 L 22.765 60.507 L 33.613 60.507 L 63.495 8.75 Z" opacity="0.1" stroke-opacity="0" stroke-miterlimit="10"/></g></g></g></g><g transform="translate(0,0) matrix(1,0,0,1,90,80)"><g><g transform="translate(0,0) scale(1.306776568353539,1.3)"><g><g><path fill="#FFFFFF" stroke="#02709F" d="M 69.887 18.325 L 69.887 99.575 L -0.425 99.575 L -0.425 -0.425 L 48.794 -0.425 L 48.677 0.692 L 48.677 19.442 L 69.771 19.442 L 69.887 18.325 Z" stroke-miterlimit="10" stroke-width="2"/></g><g><path fill="rgb(0,0,0)" stroke="#02709F" d="M 48.794 -0.425 L 69.887 18.325" fill-opacity="0" stroke-miterlimit="10" stroke-width="2"/></g></g></g></g></g><g transform="matrix(1,0,0,1,108,138)"><g><g/></g><g><g/></g><g><g/></g><g><g/><text fill="rgb(0, 0, 0)" stroke="none" font-family="&quot;Arial&quot;" font-size="12px" font-style="normal" font-weight="normal" text-decoration="" line-height="14px" x="2.9333343505859375" y="11">Web</text><text fill="rgb(0, 0, 0)" stroke="none" font-family="&quot;Arial&quot;" font-size="12px" font-style="normal" font-weight="normal" text-decoration="" line-height="14px" x="30.716659545898438" y="11">App</text></g><g><g/></g></g><g transform="translate(0.5,0.5) matrix(1,0,0,1,402.6086956521739,40)"><g><g transform="translate(0,0) scale(3.3360856039565965,3.3381228138923964)"><g><g><path fill="#3966A0" stroke="rgb(0,0,0)" d="M 103.2 33.1 C 102.5 14.7 87.3 0 68.8 0 C 59.6 0 50.8 3.7 44.4 10.2 C 41.9 8.3 38.8 7.3 35.6 7.3 C 27.8 7.3 21.4 13.3 20.8 20.9 C 9.1 22.5 0 32.6 0 44.6 L 0 44.7 L 0 44.8 C 0 58 10.8 68.8 24 68.8 L 24 68.8 L 102 68.901 L 105 68.501 C 113.5 67.101 119.9 59.701 119.9 50.801 C 120 41.5 112.5 33.7 103.2 33.1 L 103.2 33.1 Z" stroke-opacity="0" stroke-miterlimit="10"/></g><g transform="translate(3,3)"><g transform="translate(74,33)"><g><path fill="#FFFFFF" stroke="rgb(0,0,0)" d="M 38.5 8.8 C 36.1 3.7 31 0.2 25 0.2 C 24.3 0.2 23.7 0.3 23.1 0.3 C 23.1 0.901 23 1.5 23 2.1 C 21.6 15.6 12.1 26.3 -0.2 29.9 L 25 29.9 C 25.4 29.9 25.9 29.9 26.3 29.799 L 38.5 8.8 L 38.5 8.8 Z" stroke-opacity="0" stroke-miterlimit="10"/></g></g><g><g><g><path fill="#FFFFFF" stroke="rgb(0,0,0)" d="M 96.2 24 C 92.8 10.3 80.5 0.1 65.7 0.1 C 56 0.1 47.3 4.5 41.5 11.5 C 39.3 9 36.1 7.3 32.5 7.3 C 26 7.3 20.6 12.6 20.6 19.2 C 20.6 19.7 20.6 20.2 20.7 20.7 C 9.3 20.8 0 30.2 0 41.7 L 0 41.8 L 0 41.9 C 0 53.5 9.4 62.9 21 62.9 L 73.8 62.9 L 96.2 24 L 96.2 24 Z M 23.9 62.4 L 38.7 36.7 C 39.4 38.8 39.9 41 39.9 43.3 C 39.9 52.9 33 60.8 23.9 62.4 L 23.9 62.4 Z M 33.8 31 L 43.3 14.5 C 43.9 16 44.3 17.6 44.3 19.3 C 44.3 25.3 39.7 30.3 33.8 31 L 33.8 31 Z" stroke-opacity="0" stroke-miterlimit="10"/></g></g></g></g><g><path fill="#FFFFFF" stroke="rgb(0,0,0)" d="M 103.4 65.9 C 111 65.2 117 58.8 117 51 C 117 48.7 116.5 46.6 115.6 44.7 L 103.4 65.9 L 103.4 65.9 Z" opacity="0.75" stroke-opacity="0" stroke-miterlimit="10"/></g><g><path fill="#FFFFFF" stroke="rgb(0,0,0)" d="M 36.8 34 C 42.7 33.4 47.4 28.3 47.4 22.2 C 47.4 20.5 47 18.9 46.4 17.4 L 36.8 34 L 36.8 34 Z" opacity="0.75" stroke-opacity="0" stroke-miterlimit="10"/></g><g><path fill="#FFFFFF" stroke="rgb(0,0,0)" d="M 26.9 65.4 C 36 63.799 42.9 55.9 42.9 46.299 C 42.9 43.999 42.5 41.799 41.7 39.699 L 26.9 65.4 L 26.9 65.4 Z" opacity="0.75" stroke-opacity="0" stroke-miterlimit="10"/></g><g><path fill="#FFFFFF" stroke="rgb(0,0,0)" d="M 76.8 65.9 C 89.1 62.3 98.6 51.6 100 38.1 C 100.4 34.3 100.1 30.5 99.3 27 L 76.8 65.9 L 76.8 65.9 Z" opacity="0.75" stroke-opacity="0" stroke-miterlimit="10"/></g></g></g></g></g><g transform="matrix(1,0,0,1,407,148)"><g><g/></g><g><g/></g><g><g/></g><g><g/><text fill="rgb(0, 0, 0)" stroke="none" font-family="&quot;Arial&quot;" font-size="12px" font-style="normal" font-weight="normal" text-decoration="" line-height="14px" x="175.4499969482422" y="11">Internet</text></g><g><g/></g></g><g transform="translate(0,0) matrix(1,0,0,1,236,80)"><g><g transform="translate(0,0) scale(0.64,0.64)"><g><path fill="#DFD7E5" stroke="none" d="M 0 0 L 100 0 Q 100 0 100 0 L 100 100 Q 100 100 100 100 L 0 100 Q 0 100 0 100 L 0 0 Q 0 0 0 0 Z"/><g transform="scale(1.5625,1.5625)"><path fill="none" stroke="none" d="M 0 0 L 64 0 Q 64 0 64 0 L 64 64 Q 64 64 64 64 L 0 64 Q 0 64 0 64 L 0 0 Q 0 0 0 0 Z"/><path fill="none" stroke="#60327C" d="M 0 0 M 0 0 L 64 0 Q 64 0 64 0 L 64 64 Q 64 64 64 64 L 0 64 Q 0 64 0 64 L 0 0 Q 0 0 0 0 Z" stroke-miterlimit="10" stroke-width="2"/></g></g></g></g></g><g transform="matrix(1,0,0,1,247,97)"><g><g/></g><g><g/></g><g><g/></g><g><g/><text fill="rgb(67, 38, 87)" stroke="none" font-family="&quot;Arial&quot;" font-size="12px" font-style="normal" font-weight="normal" text-decoration="" line-height="15.5px" x="1.9333343505859375" y="11.75">Service</text></g><g><g/></g><g><g/></g><g><g/></g><g><g/></g><g><g/><text fill="rgb(67, 38, 87)" stroke="none" font-family="&quot;Arial&quot;" font-size="12px" font-style="normal" font-weight="normal" text-decoration="" line-height="15.5px" x="2.7166595458984375" y="27.25">Worker</text></g></g><g transform="translate(0,0) matrix(1,0,0,1,237,186)"><g><g transform="translate(0,0) scale(0.6,0.3)"><g><g transform="scale(1.6666666666666667,3.3333333333333335)"><path fill="#D7E4D6" stroke="none" d="M 60 0 L 60 26.25 Q 60 30 30 30 Q 0 30 0 26.25 L 0 0 Q 0 -3.75 30 -3.75 Q 60 -3.75 60 0 Q 60 3.75 30 3.75 Q 0 3.75 0 0"/><path fill="none" stroke="#377c32" d="M 60 0 M 60 0 L 60 26.25 Q 60 30 30 30 Q 0 30 0 26.25 L 0 0 Q 0 -3.75 30 -3.75 Q 60 -3.75 60 0 Q 60 3.75 30 3.75 Q 0 3.75 0 0" stroke-miterlimit="10" stroke-width="2"/></g></g></g></g></g><g transform="matrix(1,0,0,1,247,194)"><g><g/></g><g><g/></g><g><g/></g><g><g/></g><g><g/><text fill="rgb(35, 85, 34)" stroke="none" font-family="&quot;Arial&quot;" font-size="12px" font-style="normal" font-weight="normal" text-decoration="" line-height="14px" x="2.75" y="11">Cache</text></g><g><g/></g></g><g transform="translate(0,0) matrix(1,0,0,1,184,110)"><g><g transform="translate(0,0) scale(0.4700000000000001,0.1)"><g><g transform="scale(2.1276595744680846,10)"><path fill="#E6DFD6" stroke="none" d="M 0 5 L 5 0 L 5 3 L 42.000000000000014 3 L 42.000000000000014 0 L 47.00000000000001 5 L 42.000000000000014 10 L 42.000000000000014 7 L 5 7 L 5 10 L 0 5 Z"/><path fill="none" stroke="#7c5d32" d="M 0 5 M 0 5 L 5 0 L 5 3 L 42.000000000000014 3 L 42.000000000000014 0 L 47.00000000000001 5 L 42.000000000000014 10 L 42.000000000000014 7 L 5 7 L 5 10 L 0 5 Z" stroke-miterlimit="10" stroke-width="2"/></g></g></g></g></g><g transform="translate(0,0) matrix(-1.8369701987210297e-16,-1,1,-1.8369701987210297e-16,263,177)"><g><g transform="translate(0,0) scale(0.26,0.1)"><g><g transform="scale(3.846153846153846,10)"><path fill="#E6DFD6" stroke="none" d="M 0 5 L 5 0 L 5 3 L 21.000000000000004 3 L 21.000000000000004 0 L 26 5 L 21.000000000000004 10 L 21.000000000000004 7 L 5 7 L 5 10 L 0 5 Z"/><path fill="none" stroke="#7c5d32" d="M 0 5 M 0 5 L 5 0 L 5 3 L 21.000000000000004 3 L 21.000000000000004 0 L 26 5 L 21.000000000000004 10 L 21.000000000000004 7 L 5 7 L 5 10 L 0 5 Z" stroke-miterlimit="10" stroke-width="2"/></g></g></g></g></g><g transform="translate(0,0) matrix(1,0,0,1,305,110)"><g><g transform="translate(0,0) scale(1.33,0.1)"><g><g transform="scale(0.7518796992481203,10)"><path fill="#E6DFD6" stroke="none" d="M 0 5 L 5 0 L 5 3 L 128 3 L 128 0 L 133 5 L 128 10 L 128 7 L 5 7 L 5 10 L 0 5 Z"/><path fill="none" stroke="#7c5d32" d="M 0 5 M 0 5 L 5 0 L 5 3 L 128 3 L 128 0 L 133 5 L 128 10 L 128 7 L 5 7 L 5 10 L 0 5 Z" stroke-miterlimit="10" stroke-width="2"/></g></g></g></g></g></g></svg>